<mxfile host="app.diagrams.net" agent="Mozilla/5.0 (Windows NT 10.0; Win64; x64) AppleWebKit/537.36 (KHTML, like Gecko) Chrome/132.0.0.0 Safari/537.36" version="26.0.8">
  <diagram name="Página-1" id="cAZDdA-jWXODExhWiYxS">
    <mxGraphModel dx="1062" dy="553" grid="1" gridSize="10" guides="1" tooltips="1" connect="1" arrows="1" fold="1" page="1" pageScale="1" pageWidth="1169" pageHeight="827" math="0" shadow="0">
      <root>
        <mxCell id="0" />
        <mxCell id="1" parent="0" />
        <mxCell id="VTeTKceZwsrx2dglnUq6-12" style="edgeStyle=orthogonalEdgeStyle;rounded=0;orthogonalLoop=1;jettySize=auto;html=1;entryX=0.5;entryY=0;entryDx=0;entryDy=0;" edge="1" parent="1" source="VTeTKceZwsrx2dglnUq6-1" target="VTeTKceZwsrx2dglnUq6-4">
          <mxGeometry relative="1" as="geometry" />
        </mxCell>
        <mxCell id="VTeTKceZwsrx2dglnUq6-1" value="INICIO" style="strokeWidth=2;html=1;shape=mxgraph.flowchart.start_1;whiteSpace=wrap;" vertex="1" parent="1">
          <mxGeometry x="584.91" y="21" width="100" height="60" as="geometry" />
        </mxCell>
        <mxCell id="VTeTKceZwsrx2dglnUq6-2" value="FIM" style="strokeWidth=2;html=1;shape=mxgraph.flowchart.start_1;whiteSpace=wrap;" vertex="1" parent="1">
          <mxGeometry x="579.4599999999999" y="747" width="100" height="60" as="geometry" />
        </mxCell>
        <mxCell id="VTeTKceZwsrx2dglnUq6-3" value="N" style="html=1;strokeWidth=2;shape=manualInput;whiteSpace=wrap;rounded=1;size=26;arcSize=11;" vertex="1" parent="1">
          <mxGeometry x="584.91" y="177" width="100" height="50" as="geometry" />
        </mxCell>
        <mxCell id="VTeTKceZwsrx2dglnUq6-14" style="edgeStyle=orthogonalEdgeStyle;rounded=0;orthogonalLoop=1;jettySize=auto;html=1;entryX=0.5;entryY=0;entryDx=0;entryDy=0;" edge="1" parent="1" source="VTeTKceZwsrx2dglnUq6-4" target="VTeTKceZwsrx2dglnUq6-3">
          <mxGeometry relative="1" as="geometry" />
        </mxCell>
        <mxCell id="VTeTKceZwsrx2dglnUq6-4" value="QUANTIDADE = 0" style="rounded=1;whiteSpace=wrap;html=1;absoluteArcSize=1;arcSize=14;strokeWidth=2;" vertex="1" parent="1">
          <mxGeometry x="564.91" y="110" width="140" height="40" as="geometry" />
        </mxCell>
        <mxCell id="VTeTKceZwsrx2dglnUq6-5" value="N != 0" style="strokeWidth=2;html=1;shape=mxgraph.flowchart.decision;whiteSpace=wrap;" vertex="1" parent="1">
          <mxGeometry x="574.91" y="247" width="120" height="60" as="geometry" />
        </mxCell>
        <mxCell id="VTeTKceZwsrx2dglnUq6-6" value="N &amp;gt; 100" style="strokeWidth=2;html=1;shape=mxgraph.flowchart.decision;whiteSpace=wrap;" vertex="1" parent="1">
          <mxGeometry x="574.91" y="341" width="120" height="60" as="geometry" />
        </mxCell>
        <mxCell id="VTeTKceZwsrx2dglnUq6-18" style="edgeStyle=orthogonalEdgeStyle;rounded=0;orthogonalLoop=1;jettySize=auto;html=1;" edge="1" parent="1" source="VTeTKceZwsrx2dglnUq6-7" target="VTeTKceZwsrx2dglnUq6-9">
          <mxGeometry relative="1" as="geometry" />
        </mxCell>
        <mxCell id="VTeTKceZwsrx2dglnUq6-7" value="N" style="strokeWidth=2;html=1;shape=mxgraph.flowchart.display;whiteSpace=wrap;" vertex="1" parent="1">
          <mxGeometry x="479.90999999999997" y="407" width="75" height="40" as="geometry" />
        </mxCell>
        <mxCell id="VTeTKceZwsrx2dglnUq6-9" value="QUANTIDADE = QUANTIDADE + 1" style="rounded=1;whiteSpace=wrap;html=1;absoluteArcSize=1;arcSize=14;strokeWidth=2;" vertex="1" parent="1">
          <mxGeometry x="414.90999999999997" y="477" width="205" height="30" as="geometry" />
        </mxCell>
        <mxCell id="VTeTKceZwsrx2dglnUq6-21" style="edgeStyle=orthogonalEdgeStyle;rounded=0;orthogonalLoop=1;jettySize=auto;html=1;entryX=0.5;entryY=0;entryDx=0;entryDy=0;" edge="1" parent="1" source="VTeTKceZwsrx2dglnUq6-10" target="VTeTKceZwsrx2dglnUq6-13">
          <mxGeometry relative="1" as="geometry" />
        </mxCell>
        <mxCell id="VTeTKceZwsrx2dglnUq6-10" value="" style="strokeWidth=2;html=1;shape=mxgraph.flowchart.start_2;whiteSpace=wrap;" vertex="1" parent="1">
          <mxGeometry x="624.91" y="537" width="20" height="20" as="geometry" />
        </mxCell>
        <mxCell id="VTeTKceZwsrx2dglnUq6-11" value="QUANTIDADE" style="strokeWidth=2;html=1;shape=mxgraph.flowchart.display;whiteSpace=wrap;" vertex="1" parent="1">
          <mxGeometry x="581.91" y="666" width="95.09" height="49" as="geometry" />
        </mxCell>
        <mxCell id="VTeTKceZwsrx2dglnUq6-13" value="N" style="html=1;strokeWidth=2;shape=manualInput;whiteSpace=wrap;rounded=1;size=26;arcSize=11;" vertex="1" parent="1">
          <mxGeometry x="584.91" y="577" width="100" height="50" as="geometry" />
        </mxCell>
        <mxCell id="VTeTKceZwsrx2dglnUq6-15" style="edgeStyle=orthogonalEdgeStyle;rounded=0;orthogonalLoop=1;jettySize=auto;html=1;entryX=0.5;entryY=0;entryDx=0;entryDy=0;entryPerimeter=0;" edge="1" parent="1" source="VTeTKceZwsrx2dglnUq6-3" target="VTeTKceZwsrx2dglnUq6-5">
          <mxGeometry relative="1" as="geometry" />
        </mxCell>
        <mxCell id="VTeTKceZwsrx2dglnUq6-16" style="edgeStyle=orthogonalEdgeStyle;rounded=0;orthogonalLoop=1;jettySize=auto;html=1;entryX=0.5;entryY=0;entryDx=0;entryDy=0;entryPerimeter=0;" edge="1" parent="1" source="VTeTKceZwsrx2dglnUq6-5" target="VTeTKceZwsrx2dglnUq6-6">
          <mxGeometry relative="1" as="geometry" />
        </mxCell>
        <mxCell id="VTeTKceZwsrx2dglnUq6-24" value="SIM" style="edgeLabel;html=1;align=center;verticalAlign=middle;resizable=0;points=[];" vertex="1" connectable="0" parent="VTeTKceZwsrx2dglnUq6-16">
          <mxGeometry x="-0.6371" y="1" relative="1" as="geometry">
            <mxPoint as="offset" />
          </mxGeometry>
        </mxCell>
        <mxCell id="VTeTKceZwsrx2dglnUq6-17" style="edgeStyle=orthogonalEdgeStyle;rounded=0;orthogonalLoop=1;jettySize=auto;html=1;entryX=0.5;entryY=0;entryDx=0;entryDy=0;entryPerimeter=0;" edge="1" parent="1" source="VTeTKceZwsrx2dglnUq6-6" target="VTeTKceZwsrx2dglnUq6-7">
          <mxGeometry relative="1" as="geometry" />
        </mxCell>
        <mxCell id="VTeTKceZwsrx2dglnUq6-26" value="SIM" style="edgeLabel;html=1;align=center;verticalAlign=middle;resizable=0;points=[];" vertex="1" connectable="0" parent="VTeTKceZwsrx2dglnUq6-17">
          <mxGeometry x="-0.3452" y="-1" relative="1" as="geometry">
            <mxPoint as="offset" />
          </mxGeometry>
        </mxCell>
        <mxCell id="VTeTKceZwsrx2dglnUq6-19" style="edgeStyle=orthogonalEdgeStyle;rounded=0;orthogonalLoop=1;jettySize=auto;html=1;entryX=0;entryY=0.5;entryDx=0;entryDy=0;entryPerimeter=0;exitX=0.5;exitY=1;exitDx=0;exitDy=0;" edge="1" parent="1" source="VTeTKceZwsrx2dglnUq6-9" target="VTeTKceZwsrx2dglnUq6-10">
          <mxGeometry relative="1" as="geometry" />
        </mxCell>
        <mxCell id="VTeTKceZwsrx2dglnUq6-20" style="edgeStyle=orthogonalEdgeStyle;rounded=0;orthogonalLoop=1;jettySize=auto;html=1;entryX=1;entryY=0.5;entryDx=0;entryDy=0;entryPerimeter=0;" edge="1" parent="1" source="VTeTKceZwsrx2dglnUq6-6" target="VTeTKceZwsrx2dglnUq6-10">
          <mxGeometry relative="1" as="geometry">
            <Array as="points">
              <mxPoint x="730" y="371" />
              <mxPoint x="730" y="547" />
            </Array>
          </mxGeometry>
        </mxCell>
        <mxCell id="VTeTKceZwsrx2dglnUq6-27" value="NÃO" style="edgeLabel;html=1;align=center;verticalAlign=middle;resizable=0;points=[];" vertex="1" connectable="0" parent="VTeTKceZwsrx2dglnUq6-20">
          <mxGeometry x="-0.9004" y="1" relative="1" as="geometry">
            <mxPoint as="offset" />
          </mxGeometry>
        </mxCell>
        <mxCell id="VTeTKceZwsrx2dglnUq6-22" style="edgeStyle=orthogonalEdgeStyle;rounded=0;orthogonalLoop=1;jettySize=auto;html=1;entryX=0;entryY=0.5;entryDx=0;entryDy=0;entryPerimeter=0;exitX=0;exitY=0.75;exitDx=0;exitDy=0;" edge="1" parent="1" source="VTeTKceZwsrx2dglnUq6-13" target="VTeTKceZwsrx2dglnUq6-5">
          <mxGeometry relative="1" as="geometry">
            <Array as="points">
              <mxPoint x="390" y="614" />
              <mxPoint x="390" y="277" />
            </Array>
          </mxGeometry>
        </mxCell>
        <mxCell id="VTeTKceZwsrx2dglnUq6-23" style="edgeStyle=orthogonalEdgeStyle;rounded=0;orthogonalLoop=1;jettySize=auto;html=1;entryX=1;entryY=0.5;entryDx=0;entryDy=0;entryPerimeter=0;" edge="1" parent="1" source="VTeTKceZwsrx2dglnUq6-5" target="VTeTKceZwsrx2dglnUq6-11">
          <mxGeometry relative="1" as="geometry">
            <Array as="points">
              <mxPoint x="779.91" y="277" />
              <mxPoint x="779.91" y="691" />
            </Array>
          </mxGeometry>
        </mxCell>
        <mxCell id="VTeTKceZwsrx2dglnUq6-25" value="NÃO" style="edgeLabel;html=1;align=center;verticalAlign=middle;resizable=0;points=[];" vertex="1" connectable="0" parent="VTeTKceZwsrx2dglnUq6-23">
          <mxGeometry x="-0.8776" y="3" relative="1" as="geometry">
            <mxPoint y="3" as="offset" />
          </mxGeometry>
        </mxCell>
        <mxCell id="VTeTKceZwsrx2dglnUq6-28" style="edgeStyle=orthogonalEdgeStyle;rounded=0;orthogonalLoop=1;jettySize=auto;html=1;entryX=0.5;entryY=0;entryDx=0;entryDy=0;entryPerimeter=0;" edge="1" parent="1" source="VTeTKceZwsrx2dglnUq6-11" target="VTeTKceZwsrx2dglnUq6-2">
          <mxGeometry relative="1" as="geometry" />
        </mxCell>
      </root>
    </mxGraphModel>
  </diagram>
</mxfile>
